<svg width="15" height="17" viewBox="0 0 15 17" fill="none" xmlns="http://www.w3.org/2000/svg">
<path d="M7.49999 0.900002C7.62597 0.900002 7.74679 0.950046 7.83587 1.03913C7.92495 1.12821 7.97499 1.24902 7.97499 1.375V2.8H8.92499C9.30292 2.8 9.66538 2.95013 9.93262 3.21737C10.1999 3.48461 10.35 3.84707 10.35 4.225V7.55H12.725C13.1029 7.55 13.4654 7.70013 13.7326 7.96737C13.9999 8.23461 14.15 8.59707 14.15 8.975V14.675C14.15 15.0529 13.9999 15.4154 13.7326 15.6826C13.4654 15.9499 13.1029 16.1 12.725 16.1H2.27499C1.89706 16.1 1.5346 15.9499 1.26736 15.6826C1.00012 15.4154 0.849991 15.0529 0.849991 14.675V8.8002C0.850005 8.55419 0.91371 8.31237 1.03491 8.09828C1.1561 7.88418 1.33066 7.70512 1.54159 7.5785L4.39159 5.8685C4.47348 5.81898 4.56003 5.77762 4.64999 5.745V4.225C4.64999 3.84707 4.80012 3.48461 5.06736 3.21737C5.3346 2.95013 5.69706 2.8 6.07499 2.8H7.02499V1.375C7.02499 1.24902 7.07503 1.12821 7.16411 1.03913C7.25319 0.950046 7.37401 0.900002 7.49999 0.900002ZM5.59999 5.74595C6.13484 5.93785 6.54999 6.44135 6.54999 7.0902V15.15H8.44999V8.975C8.44984 8.68019 8.54112 8.39259 8.71127 8.15184C8.88141 7.91108 9.12204 7.72902 9.39999 7.63075V4.22595C9.39999 4.09997 9.34995 3.97916 9.26087 3.89008C9.17179 3.801 9.05097 3.75095 8.92499 3.75095H6.07499C5.94901 3.75095 5.82819 3.801 5.73911 3.89008C5.65003 3.97916 5.59999 4.09997 5.59999 4.22595V5.74595ZM9.87499 8.5C9.74901 8.5 9.62819 8.55005 9.53911 8.63913C9.45003 8.72821 9.39999 8.84902 9.39999 8.975V15.15H12.725C12.851 15.15 12.9718 15.1 13.0609 15.0109C13.1499 14.9218 13.2 14.801 13.2 14.675V8.975C13.2 8.84902 13.1499 8.72821 13.0609 8.63913C12.9718 8.55005 12.851 8.5 12.725 8.5H9.87499ZM4.88084 6.68265L2.03084 8.39265C1.96029 8.43493 1.90192 8.4948 1.86145 8.56641C1.82099 8.63801 1.79981 8.7189 1.79999 8.80115V14.675C1.79999 14.801 1.85004 14.9218 1.93912 15.0109C2.02819 15.1 2.14901 15.15 2.27499 15.15H5.59999V7.0902C5.60001 7.00616 5.57773 6.92362 5.53542 6.851C5.49312 6.77838 5.4323 6.71829 5.35918 6.67685C5.28607 6.63541 5.20327 6.61412 5.11923 6.61514C5.03519 6.61616 4.95293 6.63945 4.88084 6.68265Z" fill="#B9B9B9"/>
</svg>
