<svg width="18" height="13" viewBox="0 0 18 13" fill="none" xmlns="http://www.w3.org/2000/svg">
<path d="M8.85768 4.54703C8.73497 4.43269 8.57267 4.37044 8.40497 4.3734C8.23727 4.37636 8.07726 4.4443 7.95866 4.5629C7.84006 4.6815 7.77212 4.8415 7.76917 5.0092C7.76621 5.1769 7.82846 5.3392 7.9428 5.46191L8.56423 6.08334L7.9428 6.70477C7.8792 6.76403 7.82819 6.8355 7.79281 6.9149C7.75743 6.99431 7.7384 7.08002 7.73687 7.16694C7.73534 7.25386 7.75133 7.34019 7.78388 7.42079C7.81644 7.5014 7.8649 7.57462 7.92637 7.63609C7.98784 7.69755 8.06106 7.74601 8.14166 7.77857C8.22226 7.81113 8.3086 7.82711 8.39551 7.82558C8.48243 7.82405 8.56814 7.80502 8.64755 7.76964C8.72695 7.73426 8.79842 7.68325 8.85768 7.61965L9.47911 6.99822L10.1005 7.61965C10.2221 7.74097 10.3869 7.80904 10.5586 7.80888C10.7303 7.80872 10.895 7.74034 11.0163 7.61879C11.1376 7.49724 11.2057 7.33247 11.2055 7.16074C11.2053 6.989 11.137 6.82437 11.0154 6.70305L10.3949 6.08334L11.0163 5.46191C11.0781 5.40217 11.1274 5.33072 11.1612 5.25173C11.1951 5.17274 11.213 5.08779 11.2137 5.00184C11.2144 4.91589 11.1979 4.83065 11.1654 4.75112C11.1328 4.67158 11.0847 4.59933 11.0239 4.53858C10.9631 4.47783 10.8908 4.4298 10.8112 4.39729C10.7316 4.36478 10.6464 4.34844 10.5604 4.34922C10.4745 4.35001 10.3895 4.36791 10.3106 4.40187C10.2316 4.43583 10.1602 4.48518 10.1005 4.54703L9.47911 5.16846L8.85768 4.54703Z" fill="#C9C9C9"/>
<path d="M3.19589 4.54703C3.31726 4.42581 3.48179 4.35772 3.65333 4.35772C3.82487 4.35772 3.9894 4.42581 4.11077 4.54703L4.7322 5.16846L5.35363 4.54703C5.41289 4.48343 5.48435 4.43242 5.56376 4.39704C5.64316 4.36166 5.72888 4.34264 5.81579 4.3411C5.90271 4.33957 5.98905 4.35556 6.06965 4.38812C6.15025 4.42067 6.22347 4.46913 6.28494 4.5306C6.34641 4.59207 6.39487 4.66529 6.42742 4.74589C6.45998 4.82649 6.47597 4.91283 6.47444 4.99974C6.4729 5.08666 6.45388 5.17238 6.4185 5.25178C6.38312 5.33119 6.33211 5.40265 6.26851 5.46191L5.64794 6.08334L6.26937 6.70304C6.32956 6.76317 6.37731 6.83457 6.4099 6.91315C6.4425 6.99173 6.45929 7.07597 6.45933 7.16104C6.45937 7.24612 6.44266 7.33037 6.41014 7.40898C6.37762 7.48759 6.32993 7.55903 6.2698 7.61922C6.20967 7.6794 6.13828 7.72716 6.0597 7.75975C5.98111 7.79234 5.89688 7.80914 5.8118 7.80918C5.72673 7.80922 5.64248 7.7925 5.56387 7.75998C5.48525 7.72746 5.41381 7.67978 5.35363 7.61965L4.7322 6.99822L4.11077 7.61965C3.98806 7.73399 3.82576 7.79624 3.65806 7.79328C3.49036 7.79032 3.33035 7.72239 3.21175 7.60379C3.09315 7.48519 3.02521 7.32518 3.02225 7.15748C3.0193 6.98978 3.08154 6.82748 3.19589 6.70477L3.81732 6.08334L3.19589 5.46191C3.07467 5.34054 3.00658 5.17601 3.00658 5.00447C3.00658 4.83293 3.07467 4.6684 3.19589 4.54703Z" fill="#C9C9C9"/>
<path d="M12.9316 7.37798C12.7599 7.37798 12.5952 7.44618 12.4739 7.56757C12.3525 7.68897 12.2843 7.85362 12.2843 8.0253C12.2843 8.19698 12.3525 8.36163 12.4739 8.48302C12.5952 8.60442 12.7599 8.67262 12.9316 8.67262H14.442C14.6137 8.67262 14.7783 8.60442 14.8997 8.48302C15.0211 8.36163 15.0893 8.19698 15.0893 8.0253C15.0893 7.85362 15.0211 7.68897 14.8997 7.56757C14.7783 7.44618 14.6137 7.37798 14.442 7.37798H12.9316Z" fill="#C9C9C9"/>
<path d="M3.22173 0.0416718C2.47778 0.0416718 1.76431 0.337204 1.23825 0.863255C0.712204 1.38931 0.416672 2.10278 0.416672 2.84673V9.31995C0.416672 10.0639 0.712204 10.7774 1.23825 11.3034C1.76431 11.8295 2.47778 12.125 3.22173 12.125H14.8735C15.2419 12.125 15.6066 12.0525 15.947 11.9115C16.2873 11.7705 16.5965 11.5639 16.857 11.3034C17.1175 11.0429 17.3241 10.7337 17.4651 10.3934C17.606 10.0531 17.6786 9.68831 17.6786 9.31995V2.84673C17.6786 2.47837 17.606 2.11361 17.4651 1.77328C17.3241 1.43296 17.1175 1.12373 16.857 0.863255C16.5965 0.602781 16.2873 0.396162 15.947 0.255194C15.6066 0.114227 15.2419 0.0416718 14.8735 0.0416718H3.22173ZM1.71131 2.84673C1.71131 2.01212 2.38712 1.33631 3.22173 1.33631H14.8735C15.7081 1.33631 16.3839 2.01212 16.3839 2.84673V9.31995C16.3839 9.72053 16.2248 10.1047 15.9415 10.388C15.6583 10.6712 15.2741 10.8304 14.8735 10.8304H3.22173C2.82114 10.8304 2.43696 10.6712 2.15371 10.388C1.87045 10.1047 1.71131 9.72053 1.71131 9.31995V2.84673Z" fill="#C9C9C9"/>
</svg>
