<svg width="19" height="19" viewBox="0 0 19 19" fill="none" xmlns="http://www.w3.org/2000/svg">
<path d="M13.0625 15.4375H9.5V11.875H11.875V10.6875H9.5V9.5H13.0625V13.0625H10.6875V14.25H13.0625V15.4375Z" fill="#BEBEBE"/>
<path d="M15.2594 5.52187L11.1031 1.36562C11.0509 1.30761 10.9867 1.26164 10.9149 1.23088C10.8431 1.20013 10.7655 1.18532 10.6875 1.1875H4.75C4.43534 1.18844 4.13384 1.31385 3.91135 1.53635C3.68885 1.75884 3.56344 2.06034 3.5625 2.375V16.625C3.56344 16.9397 3.68885 17.2412 3.91135 17.4637C4.13384 17.6861 4.43534 17.8116 4.75 17.8125H14.25C14.5647 17.8116 14.8662 17.6861 15.0887 17.4637C15.3111 17.2412 15.4366 16.9397 15.4375 16.625V5.9375C15.4397 5.85946 15.4249 5.78187 15.3941 5.71011C15.3634 5.63835 15.3174 5.57412 15.2594 5.52187ZM10.6875 2.6125L14.0125 5.9375H10.6875V2.6125ZM14.25 16.625H4.75V2.375H9.5V5.9375C9.50094 6.25216 9.62635 6.55365 9.84885 6.77615C10.0713 6.99865 10.3728 7.12406 10.6875 7.125H14.25V16.625Z" fill="#BEBEBE"/>
</svg>
