<svg width="16" height="16" viewBox="0 0 16 16" fill="none" xmlns="http://www.w3.org/2000/svg">
<path d="M10.8563 1.38315e-07C10.0533 -0.000184032 9.2614 0.187752 8.54408 0.548748C7.82675 0.909744 7.20395 1.43376 6.72559 2.07881C6.24723 2.72386 5.92661 3.472 5.78941 4.26328C5.65222 5.05456 5.70227 5.86698 5.93556 6.63543L0 12.5714V16H3.42832L9.36387 10.064C10.0712 10.2787 10.8165 10.3384 11.549 10.239C12.2814 10.1396 12.9839 9.88347 13.6084 9.48802C14.2329 9.09258 14.7649 8.56713 15.168 7.94749C15.5711 7.32785 15.8359 6.62858 15.9444 5.89733C16.0528 5.16609 16.0023 4.42006 15.7964 3.71008C15.5905 3.00011 15.2339 2.34288 14.751 1.78318C14.2681 1.22348 13.6703 0.77447 12.9982 0.466749C12.3261 0.159028 11.5955 -0.000171299 10.8563 1.38315e-07ZM10.8563 9.14286C10.4629 9.14264 10.0717 9.08449 9.69528 8.97029L9.0399 8.77143L8.55593 9.25543L6.73836 11.0731L5.95041 10.2857L5.14247 11.0937L5.93042 11.8817L5.0242 12.788L4.23626 12L3.42832 12.808L4.21626 13.596L2.95521 14.8571H1.14277V13.0446L6.7435 7.44343L7.22803 6.95943L7.02919 6.304C6.78497 5.49885 6.80083 4.63719 7.07453 3.84158C7.34823 3.04597 7.86581 2.35693 8.55367 1.87247C9.24152 1.38801 10.0646 1.13281 10.9059 1.14316C11.7471 1.15351 12.5637 1.42889 13.2394 1.93012C13.9151 2.43136 14.4156 3.13293 14.6697 3.93503C14.9237 4.73713 14.9184 5.59892 14.6544 6.39782C14.3905 7.19671 13.8813 7.89203 13.1994 8.38486C12.5176 8.87768 11.6976 9.14293 10.8563 9.14286Z" fill="#CDCDCD"/>
<path d="M11.2941 6.58824C12.3337 6.58824 13.1765 5.74548 13.1765 4.70589C13.1765 3.66629 12.3337 2.82353 11.2941 2.82353C10.2545 2.82353 9.41176 3.66629 9.41176 4.70589C9.41176 5.74548 10.2545 6.58824 11.2941 6.58824Z" fill="#D0D0D0"/>
</svg>
