<svg width="15" height="13" viewBox="0 0 15 13" fill="none" xmlns="http://www.w3.org/2000/svg">
<path d="M4.3125 0.0628433L0.59375 1.92222V12.875H14.4062V3.3125H8.03125V1.92222L4.3125 0.0628433ZM4.3125 1.24966L6.96875 2.57778V11.8125H1.65625V2.57778L4.3125 1.24966ZM2.71875 3.3125V4.375H3.78125V3.3125H2.71875ZM4.84375 3.3125V4.375H5.90625V3.3125H4.84375ZM8.03125 4.375H13.3438V11.8125H8.03125V4.375ZM2.71875 5.4375V6.5H3.78125V5.4375H2.71875ZM4.84375 5.4375V6.5H5.90625V5.4375H4.84375ZM9.09375 5.4375V6.5H10.1562V5.4375H9.09375ZM11.2188 5.4375V6.5H12.2812V5.4375H11.2188ZM2.71875 7.5625V8.625H3.78125V7.5625H2.71875ZM4.84375 7.5625V8.625H5.90625V7.5625H4.84375ZM9.09375 7.5625V8.625H10.1562V7.5625H9.09375ZM11.2188 7.5625V8.625H12.2812V7.5625H11.2188ZM2.71875 9.6875V10.75H3.78125V9.6875H2.71875ZM4.84375 9.6875V10.75H5.90625V9.6875H4.84375ZM9.09375 9.6875V10.75H10.1562V9.6875H9.09375ZM11.2188 9.6875V10.75H12.2812V9.6875H11.2188Z" fill="#C1C1C1"/>
</svg>
